<?xml version="1.0" encoding="UTF-8"?>
<svg xmlns="http://www.w3.org/2000/svg" xmlns:xlink="http://www.w3.org/1999/xlink" width="80px" height="80px" viewBox="0 0 80 80" version="1.1">
<g id="surface1">
<path style=" stroke:none;fill-rule:nonzero;fill:rgb(0%,0%,0%);fill-opacity:1;" d="M 46.640625 34.097656 C 46.804688 34.710938 47.058594 34.925781 47.695312 34.984375 C 47.707031 34.960938 47.730469 34.933594 47.726562 34.914062 C 47.582031 34.195312 47.640625 34.117188 48.386719 34.097656 C 48.617188 34.089844 48.847656 34.132812 49.078125 34.136719 C 49.582031 34.148438 49.847656 34.441406 49.988281 34.882812 C 50.070312 35.144531 50.128906 35.410156 50.199219 35.671875 C 50.261719 35.90625 50.300781 36.152344 50.511719 36.328125 C 49.867188 36.5 48.964844 36.230469 48.886719 35.792969 C 48.847656 36.15625 48.640625 36.179688 48.402344 36.175781 C 47.621094 36.171875 46.84375 36.160156 46.066406 36.171875 C 44.507812 36.203125 42.960938 36.359375 41.445312 36.742188 C 41.027344 36.847656 40.832031 36.726562 40.804688 36.34375 C 40.769531 35.820312 40.4375 35.722656 40.011719 35.683594 C 39.699219 35.65625 39.460938 35.691406 39.339844 36.046875 C 39.230469 36.375 38.925781 36.5 38.609375 36.578125 C 37.675781 36.808594 36.71875 36.8125 35.761719 36.804688 C 34.949219 36.796875 34.132812 36.761719 33.320312 37.050781 C 33.714844 37.121094 34.113281 37.203125 34.511719 37.261719 C 34.972656 37.332031 35.402344 37.433594 35.628906 37.902344 C 35.679688 38.003906 35.75 38.019531 35.863281 38.015625 C 36.734375 37.964844 37.609375 38.058594 38.480469 37.9375 C 38.839844 37.886719 39.179688 37.792969 39.503906 37.652344 C 40.71875 37.136719 41.976562 36.988281 43.273438 37.199219 C 44.40625 37.386719 45.191406 38.03125 45.59375 39.105469 C 46.207031 40.753906 46.804688 42.410156 47.398438 44.066406 C 47.875 45.390625 48.472656 46.636719 49.460938 47.664062 C 49.734375 47.949219 50.082031 48.128906 50.394531 48.367188 C 48.714844 46.671875 48.078125 44.441406 47.222656 42.328125 C 46.695312 41.027344 46.226562 39.699219 45.570312 38.453125 C 45.554688 38.421875 45.570312 38.375 45.570312 38.265625 C 46.011719 38.59375 46.234375 39.015625 46.417969 39.457031 C 47.242188 41.425781 48.167969 43.34375 49.257812 45.175781 C 49.808594 46.105469 50.390625 47.015625 51.171875 47.773438 C 51.578125 48.164062 52.011719 48.617188 52.632812 48.390625 C 53.21875 48.175781 53.386719 47.582031 53.488281 47.03125 C 53.699219 45.875 53.582031 44.71875 53.390625 43.570312 C 53.195312 42.425781 52.914062 41.300781 52.675781 40.167969 C 52.566406 39.636719 52.429688 39.097656 52.332031 38.453125 C 53.761719 39.28125 55.097656 40.058594 56.4375 40.835938 C 55.5 40.976562 54.574219 40.835938 53.644531 40.902344 C 54.765625 40.957031 55.882812 41.011719 57.09375 41.070312 C 56.835938 40.714844 56.457031 40.648438 56.265625 40.375 C 56.394531 40.230469 56.554688 40.253906 56.699219 40.238281 C 57.242188 40.171875 57.601562 39.886719 57.777344 39.367188 C 57.910156 38.976562 58.023438 38.589844 58.015625 38.167969 C 57.996094 37.25 57.453125 36.597656 56.539062 36.503906 C 55.152344 36.359375 53.757812 36.351562 52.367188 36.339844 C 51.84375 36.335938 51.371094 36.207031 50.949219 35.890625 C 50.757812 35.746094 50.589844 35.5625 50.578125 35.324219 C 50.550781 34.828125 50.570312 34.324219 50.570312 33.679688 C 51.097656 34.085938 51.519531 34.476562 52.105469 34.480469 C 52.699219 34.484375 53.167969 34.179688 53.644531 33.796875 C 53.765625 34.082031 53.707031 34.339844 53.714844 34.585938 C 53.730469 35.4375 53.597656 35.390625 54.5 35.382812 C 54.941406 35.378906 55.371094 35.433594 55.796875 35.546875 C 55.875 35.566406 55.988281 35.570312 56.023438 35.625 C 56.320312 36.09375 56.859375 36.152344 57.285156 36.402344 C 58.097656 36.875 58.445312 37.84375 58.171875 38.871094 C 58.074219 39.242188 57.941406 39.601562 57.816406 39.960938 C 57.699219 40.308594 57.574219 40.652344 57.441406 41.035156 C 57.976562 41.183594 58.492188 41.140625 59 41.09375 C 59.226562 41.070312 59.167969 40.8125 59.167969 40.644531 C 59.171875 39.167969 59.167969 37.691406 59.167969 36.21875 C 59.167969 36.039062 59.171875 35.863281 59.183594 35.683594 C 59.191406 35.539062 59.242188 35.40625 59.417969 35.402344 C 59.605469 35.398438 59.683594 35.523438 59.691406 35.691406 C 59.699219 35.882812 59.695312 36.074219 59.695312 36.265625 C 59.695312 37.753906 59.691406 39.246094 59.691406 40.734375 C 59.691406 40.902344 59.644531 41.105469 59.914062 41.136719 C 60.203125 41.164062 60.269531 40.96875 60.289062 40.753906 C 60.320312 40.382812 60.414062 40.03125 60.539062 39.683594 C 60.617188 39.476562 60.675781 39.257812 60.953125 39.234375 C 61.238281 39.214844 61.363281 39.417969 61.472656 39.628906 C 61.828125 40.3125 62.011719 41.054688 62.152344 41.808594 C 62.3125 42.636719 62.441406 43.472656 62.488281 44.320312 C 62.488281 44.347656 62.488281 44.375 62.492188 44.398438 C 62.539062 44.652344 62.644531 44.847656 62.945312 44.828125 C 63.257812 44.808594 63.265625 44.578125 63.246094 44.351562 C 63.148438 43.128906 63.046875 41.90625 62.777344 40.703125 C 62.597656 39.890625 62.417969 39.078125 62.019531 38.332031 C 61.777344 37.875 61.699219 37.824219 61.1875 37.808594 C 61.28125 37.515625 61.539062 37.4375 61.769531 37.351562 C 63.101562 36.867188 64.484375 36.78125 65.886719 36.894531 C 66.144531 36.917969 66.398438 36.996094 66.65625 36.996094 C 67.355469 36.996094 67.734375 37.402344 68.027344 37.980469 C 68.671875 39.265625 68.976562 40.644531 69.203125 42.046875 C 69.34375 42.925781 69.425781 43.808594 69.441406 44.695312 C 69.445312 44.972656 69.566406 45.117188 69.808594 45.214844 C 70.816406 45.625 70.925781 45.789062 70.929688 46.855469 C 70.933594 47.945312 70.929688 49.039062 70.929688 50.132812 C 70.929688 50.292969 70.929688 50.453125 70.929688 50.625 C 71.292969 50.71875 71.542969 50.503906 71.824219 50.4375 C 72.445312 50.292969 72.960938 50.648438 72.996094 51.28125 C 72.707031 51.398438 72.46875 51.140625 72.179688 51.15625 C 71.582031 51.191406 70.976562 51.15625 70.378906 51.175781 C 69.847656 51.195312 69.34375 51.101562 68.867188 50.878906 C 68.636719 50.769531 68.476562 50.753906 68.339844 51.023438 C 68.191406 51.316406 67.917969 51.488281 67.601562 51.574219 C 65.9375 52.027344 64.257812 52.019531 62.570312 51.742188 C 61.632812 51.105469 60.597656 51.644531 59.617188 51.5 C 59.328125 51.457031 59.195312 51.703125 59.046875 51.898438 C 57.695312 53.6875 56.121094 55.253906 54.292969 56.554688 C 51.613281 58.464844 48.621094 59.625 45.386719 60.191406 C 43.390625 60.539062 41.375 60.695312 39.351562 60.578125 C 34.761719 60.304688 30.644531 58.75 27.042969 55.882812 C 24.269531 53.667969 21.921875 51.085938 20.328125 47.882812 C 19.152344 45.523438 18.511719 43.015625 18.238281 40.398438 C 17.921875 37.363281 18.234375 34.40625 19.160156 31.511719 C 19.917969 29.148438 21.101562 27.003906 22.589844 25.023438 C 24.742188 22.160156 27.402344 19.898438 30.628906 18.316406 C 32.890625 17.207031 35.28125 16.511719 37.765625 16.140625 C 42.214844 15.476562 46.53125 15.933594 50.652344 17.8125 C 56.097656 20.296875 60.039062 24.296875 62.535156 29.726562 C 62.589844 29.84375 62.695312 29.960938 62.585938 30.125 C 62.398438 30.039062 62.328125 29.851562 62.234375 29.699219 C 60.613281 27.113281 58.621094 24.871094 56.148438 23.066406 C 53.324219 21.007812 50.164062 19.765625 46.726562 19.210938 C 43.515625 18.6875 40.335938 18.804688 37.210938 19.765625 C 34.589844 20.570312 32.253906 21.890625 30.136719 23.621094 C 27.679688 25.632812 25.835938 28.101562 24.644531 31.050781 C 23.957031 32.742188 23.535156 34.496094 23.371094 36.316406 C 23.085938 39.390625 23.53125 42.355469 24.691406 45.210938 C 24.75 45.355469 24.761719 45.539062 24.976562 45.613281 C 25.140625 45.363281 25.121094 45.066406 25.121094 44.800781 C 25.128906 43.09375 25.261719 41.390625 25.3125 39.683594 C 25.347656 38.605469 25.414062 37.53125 25.464844 36.453125 C 25.472656 36.34375 25.472656 36.234375 25.464844 36.125 C 25.414062 35.398438 25.433594 35.386719 26.15625 35.21875 C 27.660156 34.871094 29.160156 34.929688 30.660156 35.234375 C 30.988281 35.300781 31.230469 35.460938 31.382812 35.769531 C 31.542969 36.089844 31.710938 36.402344 31.808594 36.746094 C 31.902344 37.0625 32.074219 37.089844 32.328125 36.929688 C 32.339844 36.921875 32.347656 36.910156 32.363281 36.90625 C 33.152344 36.683594 33.285156 36.125 33.265625 35.375 C 33.226562 33.710938 33.28125 32.042969 33.273438 30.375 C 33.273438 29.78125 33.644531 29.359375 33.894531 28.886719 C 33.992188 28.703125 34.242188 28.730469 34.375 28.929688 C 34.507812 29.132812 34.695312 29.152344 34.90625 29.152344 C 37.378906 29.148438 39.851562 29.152344 42.324219 29.152344 C 42.832031 29.15625 43.21875 28.9375 43.511719 28.539062 C 43.601562 28.417969 43.667969 28.277344 43.59375 28.121094 C 43.519531 27.96875 43.375 27.980469 43.238281 27.980469 C 42.785156 27.976562 42.335938 27.972656 41.882812 27.980469 C 41.632812 27.980469 41.472656 27.875 41.5 27.621094 C 41.527344 27.367188 41.40625 26.996094 41.867188 26.984375 C 41.921875 26.980469 41.976562 26.976562 42.03125 26.976562 C 43.410156 26.976562 44.789062 26.972656 46.167969 26.976562 C 46.671875 26.980469 46.863281 27.269531 46.714844 27.757812 C 46.660156 27.9375 46.539062 27.976562 46.375 27.976562 C 45.976562 27.972656 45.582031 27.972656 45.183594 27.976562 C 44.789062 27.984375 44.632812 28.253906 44.832031 28.601562 C 44.957031 28.820312 45.148438 29 45.390625 29.058594 C 45.9375 29.191406 46.488281 29.261719 47.023438 28.996094 C 47.59375 28.71875 48.125 29.054688 48.117188 29.683594 C 48.101562 30.84375 48.078125 32.003906 48.066406 33.164062 C 48.058594 33.65625 48.140625 33.730469 48.636719 33.738281 C 49.03125 33.742188 49.414062 33.78125 49.789062 34.035156 C 49.613281 34.179688 49.453125 34.113281 49.304688 34.097656 C 48.554688 34.019531 47.808594 33.980469 47.085938 34.25 C 46.917969 34.3125 46.792969 34.261719 46.65625 34.089844 C 46.585938 33.867188 46.441406 33.710938 46.488281 33.507812 C 46.660156 33.507812 46.699219 33.714844 46.859375 33.6875 C 47.039062 33.21875 46.957031 33.070312 46.507812 33.058594 C 46.425781 33.058594 46.34375 33.0625 46.261719 33.058594 C 45.648438 33.007812 45.4375 32.644531 45.726562 32.109375 C 45.875 31.839844 45.949219 31.5625 45.960938 31.253906 C 45.992188 30.46875 45.683594 29.820312 45.191406 29.242188 C 44.734375 28.695312 44.273438 28.601562 43.632812 28.929688 C 42.914062 29.292969 42.414062 29.886719 41.996094 30.550781 C 41.484375 31.367188 41.347656 32.273438 41.394531 33.222656 C 41.40625 33.480469 41.449219 33.8125 41.179688 33.921875 C 40.660156 34.132812 40.097656 34.140625 39.542969 34.058594 C 39.890625 33.816406 40.28125 33.785156 40.671875 33.792969 C 40.910156 33.796875 41.042969 33.742188 41.054688 33.492188 C 41.066406 33.253906 40.960938 33.136719 40.71875 33.136719 C 38.738281 33.136719 36.761719 33.140625 34.78125 33.140625 C 34.539062 33.140625 34.433594 33.261719 34.429688 33.492188 C 34.414062 34.335938 34.398438 35.183594 34.382812 36.027344 C 34.375 36.421875 34.542969 36.597656 34.953125 36.5625 C 35.347656 36.535156 35.746094 36.554688 36.140625 36.550781 C 36.949219 36.542969 37.742188 36.421875 38.519531 36.195312 C 38.75 36.128906 38.980469 36.039062 39.046875 35.726562 C 38.789062 35.664062 38.5625 35.691406 38.335938 35.726562 C 38.015625 35.78125 37.832031 35.664062 37.847656 35.3125 C 37.855469 35.082031 37.847656 34.847656 37.855469 34.617188 C 37.855469 34.484375 37.824219 34.324219 37.972656 34.25 C 38.121094 34.175781 38.230469 34.296875 38.335938 34.375 C 39.144531 34.960938 39.949219 34.964844 40.753906 34.371094 C 40.820312 34.324219 40.894531 34.292969 40.9375 34.269531 C 41.125 34.28125 41.105469 34.476562 41.246094 34.507812 C 41.40625 34.382812 41.550781 34.175781 41.796875 34.371094 C 41.980469 34.515625 41.90625 34.792969 42.085938 34.933594 C 42.4375 34.847656 42.515625 34.789062 42.636719 34.507812 C 42.730469 34.296875 42.792969 34.074219 42.890625 33.863281 C 43.546875 32.449219 45.34375 32.265625 46.265625 33.519531 C 46.402344 33.703125 46.515625 33.902344 46.640625 34.097656 M 56.355469 53.277344 C 57 52.761719 57.65625 52.257812 58.210938 51.644531 C 58.0625 51.460938 57.902344 51.503906 57.761719 51.503906 C 56.914062 51.515625 56.066406 51.539062 55.222656 51.554688 C 52.695312 51.605469 50.167969 51.550781 47.644531 51.625 C 46.167969 51.667969 44.695312 51.644531 43.21875 51.683594 C 42.070312 51.714844 40.929688 51.664062 39.800781 51.445312 C 38.667969 51.226562 37.609375 50.777344 36.523438 50.414062 C 36.125 50.285156 36.015625 50.347656 35.921875 50.753906 C 35.855469 51.046875 35.753906 51.332031 35.703125 51.625 C 35.625 52.078125 35.34375 52.292969 34.925781 52.414062 C 33.65625 52.777344 32.363281 52.757812 31.066406 52.730469 C 30.898438 52.726562 30.710938 52.648438 30.503906 52.878906 C 33.023438 54.976562 35.832031 56.503906 39.039062 57.136719 C 45.332031 58.382812 51.125 57.179688 56.355469 53.277344 M 28.390625 42.773438 C 28.367188 44.066406 28.347656 45.363281 28.324219 46.660156 C 28.316406 47.027344 28.152344 47.164062 27.773438 47.105469 C 27.210938 47.015625 26.640625 46.964844 26.070312 46.898438 C 25.929688 46.878906 25.765625 46.78125 25.65625 46.941406 C 25.558594 47.09375 25.675781 47.230469 25.746094 47.355469 C 26.257812 48.277344 26.84375 49.148438 27.503906 49.96875 C 27.828125 50.371094 28.171875 50.761719 28.546875 51.121094 C 28.636719 51.203125 28.722656 51.3125 28.863281 51.265625 C 29.015625 51.21875 29.042969 51.074219 29.058594 50.9375 C 29.074219 50.84375 29.066406 50.746094 29.074219 50.652344 C 29.160156 49.523438 29.210938 48.394531 29.273438 47.265625 C 29.425781 44.566406 29.441406 41.863281 29.390625 39.164062 C 29.386719 38.910156 29.398438 38.625 29.1875 38.40625 C 28.976562 38.621094 28.980469 38.625 28.882812 39.015625 C 28.578125 40.222656 28.511719 41.460938 28.390625 42.773438 M 49.304688 50.011719 C 45.964844 50.066406 42.621094 50.039062 39.269531 50.445312 C 39.8125 50.625 40.34375 50.71875 40.890625 50.71875 C 42.28125 50.710938 43.675781 50.710938 45.066406 50.664062 C 47.453125 50.585938 49.84375 50.644531 52.234375 50.589844 C 54.605469 50.539062 56.984375 50.570312 59.359375 50.554688 C 60.546875 50.546875 61.730469 50.589844 62.914062 50.433594 C 64.335938 50.25 65.671875 49.785156 66.996094 49.269531 C 67.628906 49.023438 68.296875 48.914062 68.984375 48.761719 C 68.820312 48.59375 68.648438 48.636719 68.492188 48.632812 C 67.566406 48.613281 66.730469 48.957031 65.894531 49.292969 C 64.546875 49.835938 63.152344 50.113281 61.695312 50.007812 C 60.265625 49.902344 58.832031 49.933594 57.398438 49.9375 C 56.089844 49.9375 54.789062 50.21875 53.476562 50.09375 C 52.113281 49.960938 50.75 49.992188 49.304688 50.011719 M 56.449219 49.335938 C 58.035156 48.992188 59.636719 48.921875 61.25 49.109375 C 62.121094 49.207031 62.988281 49.113281 63.859375 49.03125 C 65.257812 48.898438 66.476562 48.117188 67.875 47.964844 C 67.859375 47.582031 67.703125 47.382812 67.320312 47.394531 C 66.953125 47.40625 66.585938 47.402344 66.21875 47.449219 C 64.851562 47.617188 63.480469 47.742188 62.105469 47.800781 C 61.078125 47.839844 60.058594 47.707031 59.035156 47.730469 C 57.8125 47.761719 56.734375 48.140625 55.871094 49.042969 C 55.757812 49.160156 55.605469 49.269531 55.605469 49.476562 C 55.890625 49.527344 56.128906 49.394531 56.449219 49.335938 M 38.984375 49.414062 C 39.679688 49.445312 40.375 49.40625 41.070312 49.359375 C 42.226562 49.277344 43.382812 49.132812 44.542969 49.308594 C 45.089844 49.390625 45.636719 49.46875 46.183594 49.550781 C 46.128906 49.390625 46.03125 49.296875 45.921875 49.222656 C 44.847656 48.472656 43.707031 47.964844 42.34375 48.023438 C 40.652344 48.097656 38.960938 48.101562 37.265625 47.992188 C 36.53125 47.945312 35.792969 47.976562 35.054688 47.976562 C 34.890625 47.976562 34.699219 47.992188 34.675781 48.199219 C 34.648438 48.414062 34.851562 48.398438 34.988281 48.441406 C 35.417969 48.578125 35.847656 48.710938 36.273438 48.855469 C 37.128906 49.152344 38 49.367188 38.984375 49.414062 M 57.371094 41.90625 C 57.324219 41.925781 57.238281 41.9375 57.234375 41.96875 C 57.023438 42.9375 56.769531 43.902344 56.953125 44.910156 C 57.027344 45.324219 56.957031 45.386719 56.519531 45.3125 C 56.09375 45.242188 55.667969 45.246094 55.242188 45.332031 C 56.203125 45.460938 57.164062 45.550781 58.128906 45.621094 C 58.488281 45.648438 58.746094 45.457031 58.929688 45.152344 C 59.066406 44.925781 59.09375 44.664062 59.15625 44.414062 C 59.222656 44.164062 59.238281 43.894531 59.425781 43.640625 C 59.640625 44.003906 59.519531 44.34375 59.519531 44.671875 C 59.519531 44.820312 59.402344 45.019531 59.675781 45.050781 C 59.894531 45.074219 60.042969 44.957031 60.117188 44.761719 C 60.28125 44.324219 60.125 43.832031 59.746094 43.53125 C 59.003906 42.941406 58.117188 42.566406 57.371094 41.90625 M 43.097656 42.132812 C 43.667969 42.074219 44.238281 42.015625 44.808594 41.957031 C 45.089844 41.929688 45.101562 41.746094 45.023438 41.542969 C 44.964844 41.382812 44.800781 41.40625 44.667969 41.417969 C 43.824219 41.496094 42.984375 41.578125 42.144531 41.664062 C 40.503906 41.835938 38.863281 42.007812 37.222656 42.1875 C 36.753906 42.238281 36.6875 42.191406 36.625 41.714844 C 36.546875 41.109375 36.46875 40.5 36.359375 39.894531 C 36.289062 39.519531 36.214844 39.136719 35.898438 38.730469 C 36 39.417969 36.097656 39.996094 36.171875 40.574219 C 36.339844 41.945312 36.359375 43.324219 36.34375 44.703125 C 36.339844 44.867188 36.277344 45.117188 36.535156 45.125 C 36.8125 45.128906 36.765625 44.867188 36.769531 44.6875 C 36.777344 44.183594 36.78125 43.675781 36.765625 43.171875 C 36.757812 42.878906 36.886719 42.738281 37.160156 42.710938 C 37.527344 42.671875 37.894531 42.636719 38.261719 42.601562 C 39.847656 42.449219 41.4375 42.296875 43.097656 42.132812 M 60.171875 46.929688 C 60.554688 46.914062 60.9375 46.894531 61.316406 46.886719 C 62.324219 46.867188 63.335938 46.925781 64.339844 46.785156 C 64.492188 46.765625 64.671875 46.804688 64.746094 46.605469 C 64.664062 46.492188 64.546875 46.472656 64.449219 46.460938 C 63.859375 46.390625 63.320312 46.152344 62.761719 45.984375 C 61.238281 45.515625 59.753906 45.519531 58.359375 46.410156 C 58.0625 46.597656 57.773438 46.789062 57.5625 47.199219 C 58.445312 46.976562 59.269531 46.914062 60.171875 46.929688 M 39.003906 45.609375 C 38.261719 45.824219 37.515625 46.046875 36.769531 46.253906 C 36.164062 46.421875 35.542969 46.503906 34.921875 46.589844 C 34.683594 46.625 34.539062 46.753906 34.566406 47 C 34.59375 47.257812 34.800781 47.265625 35 47.257812 C 35.132812 47.25 35.269531 47.207031 35.402344 47.195312 C 37.683594 47.003906 39.878906 46.425781 42.039062 45.695312 C 42.136719 45.660156 42.300781 45.675781 42.3125 45.429688 C 41.226562 45.558594 40.15625 45.730469 39.003906 45.609375 M 33.316406 45.980469 C 33.136719 45.910156 32.964844 45.824219 32.78125 45.78125 C 32.351562 45.675781 32.242188 45.773438 32.234375 46.21875 C 32.222656 46.78125 32.304688 47.335938 32.441406 47.875 C 32.636719 48.628906 32.875 49.375 33.464844 49.9375 C 33.5625 50.027344 33.660156 50.160156 33.816406 50.09375 C 33.949219 50.03125 33.925781 49.882812 33.925781 49.765625 C 33.921875 48.875 33.925781 47.988281 33.898438 47.101562 C 33.886719 46.671875 33.773438 46.261719 33.316406 45.980469 M 38.320312 30.21875 C 39.25 30.222656 40.175781 30.230469 41.105469 30.222656 C 41.511719 30.21875 41.871094 30.097656 42.066406 29.683594 C 41.902344 29.574219 41.75 29.609375 41.601562 29.609375 C 39.417969 29.609375 37.234375 29.609375 35.046875 29.613281 C 34.925781 29.613281 34.800781 29.617188 34.679688 29.636719 C 34.523438 29.664062 34.457031 29.777344 34.460938 29.933594 C 34.46875 30.074219 34.539062 30.171875 34.675781 30.195312 C 34.796875 30.21875 34.917969 30.21875 35.042969 30.21875 C 36.105469 30.21875 37.171875 30.21875 38.320312 30.21875 M 69.941406 46.4375 C 69.570312 46.402344 69.214844 46.316406 68.859375 46.214844 C 67.429688 45.816406 66 45.40625 64.519531 45.230469 C 64.078125 45.179688 63.628906 45.089844 63.183594 45.226562 C 63.296875 45.300781 63.410156 45.347656 63.527344 45.375 C 64.867188 45.6875 66.210938 46 67.550781 46.308594 C 68.296875 46.480469 69.042969 46.632812 69.804688 46.71875 C 70.007812 46.738281 70.203125 46.746094 69.941406 46.4375 M 40.601562 41.382812 C 40.984375 41.097656 41.367188 40.8125 41.746094 40.523438 C 42.597656 39.886719 43.449219 39.25 44.296875 38.605469 C 44.402344 38.527344 44.546875 38.445312 44.4375 38.277344 C 44.324219 38.109375 44.183594 38.160156 44.046875 38.253906 C 44.015625 38.277344 43.980469 38.304688 43.949219 38.328125 C 42.621094 39.308594 41.296875 40.285156 39.972656 41.273438 C 39.832031 41.375 39.660156 41.472656 39.601562 41.683594 C 39.984375 41.742188 40.269531 41.582031 40.601562 41.382812 M 41.84375 47.1875 C 42.28125 47.1875 42.714844 47.1875 43.152344 47.1875 C 43.160156 47.140625 43.167969 47.097656 43.175781 47.054688 C 42.863281 46.675781 42.464844 46.273438 41.996094 46.292969 C 41.105469 46.328125 40.328125 46.828125 39.472656 47.054688 C 39.484375 47.097656 39.496094 47.144531 39.503906 47.1875 C 40.257812 47.1875 41.011719 47.1875 41.84375 47.1875 M 43.757812 46.160156 C 44.390625 46.0625 45.023438 45.964844 45.65625 45.863281 C 46.167969 45.785156 46.679688 45.707031 47.1875 45.621094 C 47.339844 45.59375 47.515625 45.550781 47.492188 45.355469 C 47.464844 45.140625 47.269531 45.207031 47.128906 45.203125 C 47.074219 45.199219 47.019531 45.21875 46.964844 45.226562 C 45.796875 45.40625 44.621094 45.578125 43.457031 45.78125 C 43.117188 45.839844 42.734375 45.824219 42.417969 46.128906 C 42.871094 46.429688 43.285156 46.175781 43.757812 46.160156 M 40.867188 31.90625 C 40.964844 31.894531 41.097656 31.929688 41.085938 31.765625 C 41.0625 31.75 41.054688 31.730469 41.042969 31.730469 C 38.957031 31.757812 36.871094 31.78125 34.785156 31.808594 C 34.652344 31.8125 34.472656 31.8125 34.484375 32 C 34.492188 32.171875 34.664062 32.1875 34.800781 32.183594 C 35.292969 32.160156 35.78125 32.125 36.269531 32.105469 C 37.785156 32.039062 39.296875 31.976562 40.867188 31.90625 M 31.269531 50.226562 C 30.949219 50.351562 30.871094 50.527344 31.125 50.800781 C 31.265625 50.949219 31.375 51.125 31.511719 51.277344 C 31.601562 51.382812 31.734375 51.496094 31.863281 51.414062 C 32.148438 51.230469 32.46875 51.128906 32.867188 50.996094 C 32.613281 50.761719 32.402344 50.59375 32.226562 50.394531 C 31.964844 50.09375 31.679688 50.007812 31.269531 50.226562 M 54.308594 47.191406 C 54.296875 47.476562 54.132812 47.722656 54.101562 48.003906 C 54.546875 47.386719 54.621094 46.683594 54.574219 45.953125 C 54.554688 45.667969 54.539062 45.394531 54.921875 45.292969 C 54.324219 44.816406 54.324219 44.109375 54.050781 43.527344 C 54.296875 44.714844 54.5625 45.902344 54.308594 47.191406 M 59.625 41.992188 C 59.402344 42.023438 59.152344 41.902344 58.914062 42.105469 C 59.101562 42.230469 59.257812 42.332031 59.414062 42.4375 C 60.082031 42.886719 60.082031 42.886719 60.328125 42.101562 C 60.136719 41.964844 59.914062 42.003906 59.625 41.992188 M 45.867188 29.835938 C 46.011719 30.191406 46.296875 30.265625 46.636719 30.207031 C 46.773438 30.1875 46.855469 30.097656 46.871094 29.960938 C 46.886719 29.847656 46.890625 29.738281 46.789062 29.660156 C 46.640625 29.550781 46.015625 29.628906 45.867188 29.835938 M 46.761719 32.003906 C 46.914062 31.875 46.875 31.742188 46.714844 31.691406 C 46.449219 31.609375 46.214844 31.667969 46.050781 31.957031 C 46.273438 32.101562 46.488281 32.035156 46.761719 32.003906 Z M 46.761719 32.003906 "/>
<path style=" stroke:none;fill-rule:nonzero;fill:rgb(0%,0%,0%);fill-opacity:1;" d="M 48.0625 8.761719 C 46.785156 8.667969 45.539062 8.660156 44.300781 8.734375 C 42.175781 8.863281 40.066406 9.140625 37.984375 9.597656 C 34.269531 10.417969 30.78125 11.78125 27.527344 13.75 C 25.371094 15.058594 23.371094 16.582031 21.582031 18.355469 C 17.847656 22.050781 15.351562 26.4375 14.28125 31.609375 C 13.851562 33.6875 13.609375 35.785156 13.640625 37.902344 C 13.710938 42.753906 15.089844 47.207031 17.871094 51.199219 C 20.074219 54.363281 22.753906 57.039062 26.085938 59.019531 C 28.808594 60.636719 31.753906 61.613281 34.878906 62.105469 C 37.015625 62.441406 39.171875 62.546875 41.324219 62.421875 C 45.730469 62.160156 49.851562 60.90625 53.699219 58.746094 C 55.898438 57.511719 57.964844 56.097656 59.800781 54.355469 C 59.882812 54.277344 59.957031 54.160156 60.179688 54.203125 C 56.484375 58.984375 52.261719 63.066406 46.699219 65.585938 C 48.738281 65.234375 50.664062 64.546875 52.550781 63.742188 C 54.433594 62.933594 56.195312 61.90625 57.90625 60.769531 C 58.023438 61.007812 57.875 61.0625 57.789062 61.125 C 55.195312 63.144531 52.492188 64.992188 49.476562 66.328125 C 46.9375 67.449219 44.300781 68.195312 41.53125 68.484375 C 35.554688 69.105469 30.003906 67.78125 24.816406 64.835938 C 20.324219 62.28125 16.566406 58.886719 13.550781 54.683594 C 10.796875 50.839844 8.875 46.613281 7.960938 41.960938 C 7.4375 39.296875 7.3125 36.609375 7.578125 33.898438 C 8.042969 29.1875 9.585938 24.867188 12.109375 20.878906 C 12.25 20.660156 12.320312 20.386719 12.601562 20.253906 C 10.863281 24.191406 9.777344 28.285156 9.570312 32.597656 C 9.757812 31.914062 9.941406 31.226562 10.132812 30.542969 C 11.070312 27.1875 12.644531 24.152344 14.765625 21.394531 C 16.820312 18.71875 19.226562 16.414062 21.957031 14.441406 C 24.992188 12.25 28.3125 10.621094 31.878906 9.480469 C 34.511719 8.640625 37.199219 8.058594 39.953125 7.792969 C 42.414062 7.550781 44.878906 7.5625 47.347656 7.828125 C 50.519531 8.167969 53.582031 8.902344 56.515625 10.152344 C 56.722656 10.238281 56.722656 10.238281 56.871094 10.464844 C 54.007812 9.578125 51.101562 8.933594 48.0625 8.761719 Z M 48.0625 8.761719 "/>
<path style=" stroke:none;fill-rule:nonzero;fill:rgb(0%,0%,0%);fill-opacity:1;" d="M 23.679688 54.1875 C 26.113281 56.886719 29.035156 58.839844 32.378906 60.191406 C 32.25 60.398438 32.140625 60.320312 32.042969 60.296875 C 29.628906 59.789062 27.449219 58.753906 25.402344 57.398438 C 22.828125 55.691406 20.585938 53.640625 18.800781 51.101562 C 16.914062 48.414062 15.699219 45.445312 15.054688 42.230469 C 14.664062 40.257812 14.4375 38.269531 14.484375 36.253906 C 14.589844 31.871094 15.777344 27.800781 18.082031 24.074219 C 21.363281 18.761719 25.878906 14.851562 31.605469 12.34375 C 34.347656 11.144531 37.199219 10.320312 40.148438 9.84375 C 43.152344 9.359375 46.171875 9.292969 49.203125 9.625 C 51.824219 9.910156 54.375 10.460938 56.84375 11.363281 C 60.585938 12.726562 63.917969 14.773438 66.867188 17.441406 C 67.640625 18.140625 68.375 18.871094 69.09375 19.621094 C 69.183594 19.710938 69.320312 19.78125 69.300781 19.96875 C 69.132812 19.96875 69.042969 19.839844 68.933594 19.753906 C 65.964844 17.378906 62.804688 15.320312 59.242188 13.941406 C 56.65625 12.9375 53.984375 12.304688 51.234375 11.980469 C 48.796875 11.695312 46.359375 11.675781 43.921875 11.921875 C 38.691406 12.441406 33.808594 13.972656 29.386719 16.882812 C 26.128906 19.023438 23.628906 21.839844 21.746094 25.226562 C 20.605469 27.277344 19.488281 29.34375 18.808594 31.613281 C 18.242188 33.503906 17.898438 35.425781 17.78125 37.398438 C 17.53125 41.640625 18.375 45.644531 20.335938 49.410156 C 21.234375 51.140625 22.375 52.707031 23.679688 54.1875 Z M 23.679688 54.1875 "/>
<path style=" stroke:none;fill-rule:nonzero;fill:rgb(0%,0%,0%);fill-opacity:1;" d="M 14.203125 59.070312 C 12.875 56.980469 11.8125 54.800781 11.023438 52.464844 C 11.242188 52.445312 11.257812 52.578125 11.300781 52.664062 C 12.617188 55.425781 14.492188 57.777344 16.675781 59.890625 C 19.59375 62.707031 22.851562 65.058594 26.523438 66.800781 C 29.515625 68.222656 32.660156 69.136719 35.945312 69.574219 C 38.570312 69.925781 41.199219 69.980469 43.832031 69.796875 C 46.179688 69.632812 48.488281 69.246094 50.6875 68.351562 C 51.796875 67.902344 52.828125 67.324219 53.730469 66.53125 C 53.808594 66.460938 53.875 66.359375 54.003906 66.371094 C 53.933594 66.734375 52.910156 67.695312 51.761719 68.46875 C 50.875 69.066406 49.921875 69.535156 48.929688 69.929688 C 47.957031 70.320312 46.949219 70.589844 45.949219 70.90625 C 49.023438 71.058594 51.953125 70.4375 54.832031 69.199219 C 54.753906 69.519531 54.558594 69.554688 54.410156 69.636719 C 51.710938 71.109375 48.828125 72.027344 45.789062 72.480469 C 43.285156 72.855469 40.765625 72.988281 38.238281 72.796875 C 32.632812 72.378906 27.441406 70.71875 22.738281 67.601562 C 19.324219 65.335938 16.453125 62.535156 14.203125 59.070312 Z M 14.203125 59.070312 "/>
<path style=" stroke:none;fill-rule:nonzero;fill:rgb(0%,0%,0%);fill-opacity:1;" d="M 56.390625 38.050781 C 56.796875 38.796875 56.542969 39.472656 56.261719 40.148438 C 56.195312 40.308594 56.046875 40.316406 55.917969 40.238281 C 54.746094 39.539062 53.582031 38.835938 52.417969 38.128906 C 52.367188 38.097656 52.34375 38.023438 52.3125 37.964844 C 52.445312 37.769531 52.644531 37.84375 52.804688 37.820312 C 53.722656 37.683594 54.648438 37.660156 55.578125 37.667969 C 55.890625 37.667969 56.160156 37.789062 56.390625 38.050781 Z M 56.390625 38.050781 "/>
<path style=" stroke:none;fill-rule:nonzero;fill:rgb(0%,0%,0%);fill-opacity:1;" d="M 42.972656 29.875 C 43.074219 29.726562 43.152344 29.597656 43.246094 29.484375 C 43.800781 28.832031 44.453125 28.824219 45.019531 29.464844 C 45.472656 29.976562 45.734375 30.554688 45.679688 31.253906 C 45.65625 31.558594 45.535156 31.800781 45.296875 31.992188 C 44.792969 32.398438 43.914062 32.480469 43.320312 32.167969 C 42.894531 31.945312 42.632812 31.429688 42.691406 30.886719 C 42.730469 30.546875 42.789062 30.210938 42.972656 29.875 Z M 42.972656 29.875 "/>
</g>
</svg>
